<svg id="Layer_1" data-name="Layer 1" xmlns="http://www.w3.org/2000/svg" viewBox="0 0 666.63 146.21"><defs><style>.cls-1{fill:#49bce2;}.cls-2{fill:#ffc10e;}</style></defs><title>Logo_1</title><path class="cls-1" d="M73.11,41.43a31.68,31.68,0,1,0,31.68,31.68A31.68,31.68,0,0,0,73.11,41.43Zm19.9,38H79.43V93.08H66.78V79.43H53.21V66.78H66.78V53.13H79.43V66.78H93Z"/><path class="cls-1" d="M73.11,125.24A52.13,52.13,0,0,1,21,74.49h0V21.88a73.09,73.09,0,1,0,107.67,98.74L112.71,107A52,52,0,0,1,73.11,125.24Z"/><path class="cls-1" d="M73.11,0A72.82,72.82,0,0,0,44.3,5.91L44,6.06a3.76,3.76,0,0,0-2.13,3.37v22A52.14,52.14,0,0,1,113.36,40l16.19-13.33A73,73,0,0,0,73.11,0Z"/><path class="cls-2" d="M184.43,45.71a16.32,16.32,0,0,1,7.32,5,11.82,11.82,0,0,1,2.59,7.61,12.14,12.14,0,0,1-2.63,7.77,13.19,13.19,0,0,1-7.16,4.53,13.92,13.92,0,0,1,8.54,4.94,14.53,14.53,0,0,1,3.12,9.39,13.67,13.67,0,0,1-2.67,8.38,16.6,16.6,0,0,1-7.61,5.5,32.11,32.11,0,0,1-11.57,1.9h-28V44H173.3A32.23,32.23,0,0,1,184.43,45.71Zm-7.08,19.34a5.15,5.15,0,0,0,1.78-4.17,4.83,4.83,0,0,0-1.78-4,7.28,7.28,0,0,0-4.86-1.34H161.16v11h11.33A7.31,7.31,0,0,0,177.35,65.06Zm1.3,22.54a5.25,5.25,0,0,0,2.27-4.53,4.93,4.93,0,0,0-2.27-4.25,10.22,10.22,0,0,0-6.15-1.5H161.16v11.9h11.33A10.4,10.4,0,0,0,178.64,87.59Z"/><path class="cls-2" d="M236.67,59.23a20.42,20.42,0,0,1,8.42,7.85,22.53,22.53,0,0,1,3,11.69,22.68,22.68,0,0,1-3,11.77,20.41,20.41,0,0,1-8.42,7.85,29.58,29.58,0,0,1-25.09,0,20.13,20.13,0,0,1-8.38-7.85,22.91,22.91,0,0,1-3-11.77,22.75,22.75,0,0,1,3-11.69,20.13,20.13,0,0,1,8.38-7.85,29.58,29.58,0,0,1,25.09,0ZM217.33,71.08a11.57,11.57,0,0,0-2.59,7.85,11.69,11.69,0,0,0,2.59,7.93,8.55,8.55,0,0,0,6.8,3,8.64,8.64,0,0,0,6.88-3,11.7,11.7,0,0,0,2.59-7.93A11.47,11.47,0,0,0,231,71.08a8.68,8.68,0,0,0-6.84-3A8.56,8.56,0,0,0,217.33,71.08Z"/><path class="cls-2" d="M287.81,59.23a20.42,20.42,0,0,1,8.42,7.85,22.53,22.53,0,0,1,3,11.69,22.68,22.68,0,0,1-3,11.77,20.41,20.41,0,0,1-8.42,7.85,29.58,29.58,0,0,1-25.09,0,20.13,20.13,0,0,1-8.38-7.85,22.91,22.91,0,0,1-3-11.77,22.75,22.75,0,0,1,3-11.69,20.13,20.13,0,0,1,8.38-7.85,29.58,29.58,0,0,1,25.09,0ZM268.47,71.08a11.57,11.57,0,0,0-2.59,7.85,11.69,11.69,0,0,0,2.59,7.93,8.55,8.55,0,0,0,6.8,3,8.64,8.64,0,0,0,6.88-3,11.7,11.7,0,0,0,2.59-7.93,11.47,11.47,0,0,0-2.63-7.85,8.68,8.68,0,0,0-6.84-3A8.56,8.56,0,0,0,268.47,71.08Z"/><path class="cls-2" d="M334.59,100.7l-9.22-16.51-4.45,4.61v11.9H306.5v-60h14.41V71.73l14-14.81h16.35l-16,16.91,16.35,26.87Z"/><path class="cls-2" d="M369.34,38.92a7.5,7.5,0,0,1,2.15,5.54,7.53,7.53,0,0,1-2.15,5.5,7.92,7.92,0,0,1-10.92,0,7.53,7.53,0,0,1-2.15-5.5,7.5,7.5,0,0,1,2.15-5.54,8,8,0,0,1,10.92,0Zm-12.5,18h14.32V100.7H356.84Z"/><path class="cls-2" d="M422.11,60.89q4.33,4.53,4.33,12.22v27.6H412.11V77.24a8.21,8.21,0,0,0-2-5.87,7.1,7.1,0,0,0-5.42-2.14,8.31,8.31,0,0,0-5.87,2.35,9.54,9.54,0,0,0-2.71,6V100.7h-14.4V56.92h14.4V64a15.56,15.56,0,0,1,6-5.74,17.85,17.85,0,0,1,8.46-1.94Q417.78,56.36,422.11,60.89Z"/><path class="cls-2" d="M477.66,56.92v39.9a19,19,0,0,1-3,10.64,19.42,19.42,0,0,1-8.37,7A29.52,29.52,0,0,1,453.87,117a36.57,36.57,0,0,1-10.6-1.54,33.6,33.6,0,0,1-9-4.13l5-10a25.78,25.78,0,0,0,6.47,3.16,22.62,22.62,0,0,0,7,1.13,12,12,0,0,0,7.69-2.27,7.46,7.46,0,0,0,2.83-6.15V92.53q-4.37,5.75-12.46,5.75A17.56,17.56,0,0,1,434.57,88.2a24.55,24.55,0,0,1-2.39-11,24.29,24.29,0,0,1,2.31-10.84A17.28,17.28,0,0,1,441,59a17.85,17.85,0,0,1,9.55-2.59,17.42,17.42,0,0,1,7.32,1.5,14.29,14.29,0,0,1,5.46,4.33V56.92Zm-16.75,28a10.92,10.92,0,0,0,2.43-7.36,11.05,11.05,0,0,0-2.43-7.45,8.64,8.64,0,0,0-12.83,0,11,11,0,0,0-2.47,7.4,10.8,10.8,0,0,0,2.47,7.36,8.13,8.13,0,0,0,6.43,2.83A8,8,0,0,0,460.91,84.92Z"/><path class="cls-2" d="M522.17,57.69a15.69,15.69,0,0,0-7.53-2.06,14.72,14.72,0,0,0-7.81,2.15,15.19,15.19,0,0,0-5.54,5.91,18.35,18.35,0,0,0,0,16.75,15.18,15.18,0,0,0,5.54,5.91,14.71,14.71,0,0,0,7.81,2.15,17.18,17.18,0,0,0,7.28-1.78,23.06,23.06,0,0,0,6.8-4.86l8.66,9.31a34.62,34.62,0,0,1-11,7.73,30.45,30.45,0,0,1-27.8-1,28.38,28.38,0,0,1-10.68-10.6,29.51,29.51,0,0,1-3.88-15.05,28.28,28.28,0,0,1,14.85-25.33,32.25,32.25,0,0,1,28-1.17,30.92,30.92,0,0,1,10.44,7.16l-8.58,10.36A21.17,21.17,0,0,0,522.17,57.69Z"/><path class="cls-2" d="M576.56,60.52q5,4.17,5.1,11.69V100.7H567.49V95.77q-4.37,5.58-13.19,5.58-7,0-11-3.76a13,13,0,0,1-4-9.91A11.76,11.76,0,0,1,543.66,78q4.33-3.48,12.42-3.56h11.41v-.49a5.84,5.84,0,0,0-2.14-4.86,9.79,9.79,0,0,0-6.19-1.7,25,25,0,0,0-6.19.89A36.81,36.81,0,0,0,546,70.84l-4-9.71a57,57,0,0,1,10.24-3.6,43.48,43.48,0,0,1,10.16-1.17Q571.54,56.36,576.56,60.52ZM564.42,90a6.84,6.84,0,0,0,3.08-4.09v-3.8h-8.58q-6.07,0-6.07,4.53a4.47,4.47,0,0,0,1.58,3.6,6.49,6.49,0,0,0,4.33,1.34A10.16,10.16,0,0,0,564.42,90Z"/><path class="cls-2" d="M611.15,58.38a16.49,16.49,0,0,1,8.21-2V69.55a21.73,21.73,0,0,0-2.18-.08,13.32,13.32,0,0,0-8.25,2.39,9.15,9.15,0,0,0-3.64,6.51V100.7h-14.4V56.92h14.4v7.28A15.77,15.77,0,0,1,611.15,58.38Z"/><path class="cls-2" d="M660.88,62.75q5.74,6.31,5.75,17.32,0,1.7-.08,2.59H636.12a10.51,10.51,0,0,0,3.64,5.71,10.07,10.07,0,0,0,6.31,2,13.66,13.66,0,0,0,5.46-1.13,15.43,15.43,0,0,0,4.82-3.32l7.53,7.53a22.19,22.19,0,0,1-8.21,5.79,28.33,28.33,0,0,1-10.88,2,26.18,26.18,0,0,1-12.3-2.75,19.12,19.12,0,0,1-8.05-7.77A23.57,23.57,0,0,1,621.63,79a24.16,24.16,0,0,1,2.83-11.86,19.56,19.56,0,0,1,8-7.93,24.85,24.85,0,0,1,12-2.79Q655.13,56.44,660.88,62.75ZM652.63,75a8.43,8.43,0,0,0-2.23-6.11,8.46,8.46,0,0,0-11.57,0,11.27,11.27,0,0,0-3,6.15Z"/></svg>