<svg width="100" height="100" viewBox="0 0 100 100" fill="none" xmlns="http://www.w3.org/2000/svg">
<path d="M87.232 35.315C83.763 33.583 80.824 33.381 79.046 33.491C79.129 30.565 78.437 24.53 72.161 20.03C67.528 16.709 64.509 16.548 59.163 16.985C54.772 17.341 49.867 20.978 47.156 24.218C46.305 22.932 45.22 21.782 43.866 20.812C40.293 18.248 37.969 18.125 33.859 18.457C29.652 18.801 24.826 23.036 23.397 25.749C21.991 25.518 19.267 25.339 17.005 26.799C14.027 28.72 13.44 32.097 13.345 33.837C10.364 34.714 5.95997 37.298 5.59097 42.503C5.29597 46.669 6.63597 49.045 7.81197 50.304C8.97397 51.547 10.54 52.289 12.002 52.289C12.004 52.289 12.008 52.289 12.012 52.289H22.141C22.558 55.383 23.769 57.355 24.875 58.539C26.338 60.105 28.304 61.041 30.128 61.041C30.133 61.041 30.138 61.041 30.14 61.041H46.356C47.057 61.041 47.627 60.473 47.627 59.77C47.627 59.067 47.057 58.499 46.356 58.499H30.141C30.139 58.499 30.137 58.499 30.137 58.499C29.256 58.499 27.902 58.055 26.736 56.805C25.577 55.563 24.26 53.147 24.577 48.68C25.1 41.272 33.47 39.621 33.826 39.554L34.945 39.341L34.862 38.208C34.857 38.152 34.495 32.627 38.373 30.125C41.391 28.176 45.633 29.34 45.674 29.353L46.486 29.586L47.016 28.927C47.068 28.861 47.538 28.27 47.827 27.705C49.165 25.052 54.827 19.889 59.373 19.519C64.396 19.11 66.68 19.227 70.684 22.098C77.735 27.154 76.451 34.427 76.393 34.73L75.993 36.769L77.991 36.196C78.024 36.189 81.426 35.257 86.1 37.592C93.367 41.223 92.11 49.526 91.786 51.154C90.258 58.784 83.003 58.515 82.625 58.503H73.887C73.185 58.503 72.616 59.07 72.616 59.774C72.616 60.478 73.184 61.045 73.887 61.045L82.554 61.042C82.712 61.051 82.877 61.057 83.048 61.057C86.544 61.057 92.778 59.143 94.278 51.653C94.664 49.702 96.152 39.773 87.232 35.315ZM45.473 26.703C43.783 26.386 40.051 26.014 36.993 27.985C33.016 30.554 32.384 35.173 32.313 37.293C28.474 38.338 22.524 41.654 22.039 48.499C22.009 48.938 22.012 49.339 22.008 49.748H12.012C12.01 49.748 12.01 49.748 12.007 49.748C11.437 49.748 10.486 49.439 9.67097 48.569C8.84097 47.679 7.89797 45.935 8.12797 42.682C8.50697 37.346 14.588 36.136 14.844 36.087L15.97 35.88L15.881 34.737C15.878 34.697 15.598 30.734 18.385 28.937C20.539 27.546 23.605 28.383 23.632 28.391L24.444 28.625L24.973 27.966C25.042 27.882 25.392 27.436 25.621 26.989C26.601 25.045 30.744 21.262 34.068 20.991C37.777 20.689 39.455 20.775 42.386 22.877C43.797 23.888 44.851 25.122 45.571 26.528C45.566 26.535 45.561 26.546 45.556 26.554C45.533 26.6 45.504 26.651 45.473 26.703Z" fill="#050B12"/>
<path d="M69.137 60.452H69.135L61.141 60.458L65.821 46.775C66.018 46.198 65.778 45.561 65.248 45.259C64.717 44.955 64.047 45.075 63.649 45.542L44.786 67.795C44.462 68.176 44.392 68.712 44.608 69.162C44.822 69.611 45.276 69.863 45.782 69.887L53.013 69.735L48.721 83.204C48.537 83.776 48.782 84.399 49.305 84.694C49.501 84.805 49.716 84.86 49.93 84.86C50.287 84.86 50.638 84.71 50.886 84.427L70.09 62.562C70.42 62.185 70.499 61.654 70.293 61.198C70.088 60.743 69.635 60.452 69.137 60.452ZM52.988 78.184L55.974 68.813C56.097 68.422 56.025 67.996 55.781 67.667C55.541 67.346 55.164 67.156 54.761 67.156C54.753 67.156 54.744 67.156 54.736 67.156L48.548 67.287L61.24 52.314L58.16 61.318C58.027 61.708 58.09 62.134 58.328 62.468C58.566 62.802 58.953 63 59.361 63H59.363L66.327 62.995L52.988 78.184Z" fill="#050B12"/>
</svg>
