<svg width="100" height="100" viewBox="0 0 100 100" fill="none" xmlns="http://www.w3.org/2000/svg">
<path d="M75.07 30.1609C67.701 30.1619 59.234 29.4229 49.876 27.9469C20.651 23.3309 7.189 27.8359 7.056 27.8829C6.294 28.1489 5.47 27.7449 5.207 26.9869C4.943 26.2289 5.345 25.3999 6.103 25.1369C6.671 24.9399 20.383 20.3469 50.331 25.0729C68.451 27.9349 83.064 27.9909 92.592 25.2339C92.799 25.1729 92.958 25.1279 93.071 25.0989C93.846 24.9019 94.639 25.3799 94.833 26.1579C95.028 26.9359 94.556 27.7249 93.776 27.9209L93.399 28.0259C88.479 29.4489 82.305 30.1609 75.07 30.1609Z" fill="#050B12"/>
<path d="M75.07 47.2241C67.701 47.2241 59.234 46.4861 49.876 45.0091C20.651 40.3931 7.189 44.9001 7.056 44.9451C6.303 45.2121 5.471 44.8091 5.207 44.0501C4.943 43.2921 5.345 42.4631 6.103 42.1991C6.671 42.0001 20.383 37.4101 50.331 42.1371C68.451 44.9971 83.064 45.0531 92.592 42.2961C92.799 42.2361 92.958 42.1911 93.071 42.1631C93.846 41.9641 94.639 42.4431 94.833 43.2211C95.028 44.0001 94.556 44.7891 93.776 44.9841L93.399 45.0901C88.479 46.5121 82.305 47.2241 75.07 47.2241Z" fill="#050B12"/>
<path d="M75.07 64.2869C67.701 64.2869 59.234 63.5489 49.876 62.0699C20.651 57.4539 7.189 61.9619 7.056 62.0079C6.303 62.2759 5.471 61.8709 5.207 61.1129C4.943 60.3549 5.345 59.5249 6.103 59.2609C6.671 59.0659 20.383 54.4719 50.331 59.1989C68.451 62.0569 83.064 62.1139 92.592 59.3579C92.799 59.2969 92.958 59.2529 93.071 59.2229C93.846 59.0279 94.639 59.5009 94.833 60.2799C95.028 61.0609 94.556 61.8499 93.776 62.0439L93.399 62.1509C88.479 63.5739 82.305 64.2869 75.07 64.2869Z" fill="#050B12"/>
<path d="M75.073 81.352C67.704 81.352 59.234 80.612 49.876 79.134C20.763 74.535 7.187 79.028 7.053 79.072C6.295 79.331 5.468 78.929 5.206 78.173C4.944 77.416 5.344 76.589 6.102 76.327C6.673 76.129 20.382 71.535 50.33 76.262C68.459 79.126 83.068 79.182 92.591 76.421C92.798 76.361 92.957 76.317 93.069 76.287C93.846 76.099 94.639 76.564 94.833 77.348C95.028 78.124 94.556 78.913 93.776 79.11L93.4 79.213C88.48 80.639 82.307 81.352 75.073 81.352Z" fill="#050B12"/>
</svg>
