<svg width="100" height="100" viewBox="0 0 100 100" fill="none" xmlns="http://www.w3.org/2000/svg">
<path d="M89.2149 43.205C86.8599 42.027 84.7969 41.787 83.4439 41.818C83.4259 39.48 82.6989 35.25 78.2459 32.056C75.2349 29.897 73.1329 29.517 70.0449 29.657C67.2849 20.238 58.6419 13.712 48.7599 13.712C45.9919 13.712 43.352 14.242 40.907 15.172C40.136 13.731 39.029 12.479 37.588 11.446C34.533 9.25403 32.5509 9.14503 29.0569 9.43203C25.5409 9.71603 21.5189 13.177 20.1939 15.503C18.9399 15.321 16.7149 15.24 14.8489 16.446C12.3659 18.045 11.7999 20.805 11.6869 22.35C9.13195 23.152 5.50295 25.376 5.19295 29.763C4.93995 33.335 6.09795 35.384 7.11495 36.473C8.13195 37.565 9.51195 38.216 10.8049 38.216C10.8049 38.216 10.8069 38.216 10.8099 38.216H26.6929C27.5619 46.661 33.133 53.848 41.192 56.761C41.642 58.96 42.6409 60.358 43.5639 61.194C44.1009 61.682 44.932 61.639 45.417 61.102C45.904 60.565 45.863 59.735 45.325 59.248C44.407 58.416 43.3599 56.717 43.5989 53.347C43.9599 48.232 49.804 47.067 50.049 47.021C50.71 46.899 51.1739 46.298 51.1189 45.627C51.1169 45.588 50.8479 41.789 53.5149 40.069C55.5769 38.743 58.515 39.543 58.54 39.55C59.046 39.697 59.593 39.524 59.923 39.114C59.991 39.031 60.3389 38.592 60.5639 38.151C61.5089 36.277 65.5009 32.632 68.6969 32.372C72.2749 32.079 73.8919 32.163 76.7179 34.187C81.6629 37.734 80.7809 42.833 80.7409 43.042C80.6539 43.485 80.8079 43.941 81.1379 44.25C81.4679 44.56 81.9389 44.674 82.3779 44.559C82.4759 44.532 84.8159 43.94 88.0459 45.551C93.1079 48.081 92.2259 53.909 91.9969 55.051C90.9639 60.21 86.2719 60.159 85.6729 60.12H70.8139C70.0879 60.12 69.5019 60.706 69.5019 61.432C69.5019 62.157 70.0899 62.743 70.8139 62.743H85.5999C85.7189 62.751 85.8459 62.753 85.9769 62.753C88.6549 62.753 93.4239 61.292 94.5689 55.567C95.4199 51.309 94.4609 45.825 89.2149 43.205ZM10.8069 35.592C10.3789 35.592 9.65895 35.353 9.03295 34.683C8.37295 33.975 7.62495 32.579 7.81195 29.949C8.11195 25.686 13.0139 24.705 13.2189 24.666L14.3829 24.452L14.2909 23.273C14.2889 23.24 14.1019 20.051 16.2719 18.65C17.9759 17.551 20.4369 18.22 20.4559 18.225L21.2929 18.466L21.8399 17.787C21.9009 17.712 22.2109 17.32 22.4089 16.926C23.2069 15.343 26.5739 12.267 29.2709 12.048C32.3689 11.799 33.6669 11.862 36.0599 13.579C37.1089 14.331 37.9229 15.226 38.5019 16.244C31.5039 19.909 26.6979 27.189 26.5799 35.593L10.8069 35.592ZM58.2929 36.825C56.9039 36.603 54.277 36.453 52.09 37.864C49.204 39.727 48.609 42.981 48.507 44.7C45.593 45.574 41.3379 48.101 40.9809 53.162C40.9629 53.408 40.972 53.625 40.966 53.855C33.847 50.782 29.1879 43.812 29.1879 35.907C29.1879 25.115 37.9679 16.336 48.7599 16.336C57.3149 16.336 64.8149 21.88 67.3909 29.938C63.5999 30.809 59.5979 34.407 58.2929 36.825Z" fill="#050B12"/>
<path d="M37.2391 61.4529C36.5811 61.1459 35.8011 61.4279 35.4931 62.0859L30.0901 73.6559C29.7841 74.3119 30.0681 75.0919 30.7241 75.3999C30.9031 75.4819 31.0921 75.5229 31.2781 75.5229C31.7731 75.5229 32.2451 75.2439 32.4681 74.7649L37.8711 63.1949C38.1781 62.5409 37.8951 61.7599 37.2391 61.4529Z" fill="#050B12"/>
<path d="M52.4 55.1701C51.744 54.8671 50.962 55.1521 50.659 55.8131L37.964 83.3051C37.659 83.9611 37.946 84.7431 38.605 85.0451C38.782 85.1271 38.969 85.1661 39.153 85.1661C39.65 85.1661 40.124 84.8851 40.345 84.4041L53.041 56.9101C53.346 56.2541 53.059 55.4751 52.4 55.1701Z" fill="#050B12"/>
<path d="M65.781 55.607C65.125 55.296 64.343 55.576 64.033 56.23L47.976 90.039C47.664 90.693 47.943 91.475 48.598 91.787C48.78 91.873 48.97 91.914 49.16 91.914C49.65 91.914 50.121 91.637 50.347 91.164L66.404 57.355C66.715 56.701 66.436 55.92 65.781 55.607Z" fill="#050B12"/>
<path d="M74.398 65.0739C73.734 64.7829 72.959 65.0839 72.668 65.7459L66.074 80.7539C65.781 81.4179 66.084 82.1919 66.748 82.4829C66.92 82.5589 67.1 82.5939 67.275 82.5939C67.779 82.5939 68.258 82.3029 68.476 81.8109L75.072 66.8029C75.363 66.1389 75.061 65.3629 74.398 65.0739Z" fill="#050B12"/>
</svg>
