<svg width="100" height="100" viewBox="0 0 100 100" fill="none" xmlns="http://www.w3.org/2000/svg">
<path d="M92.762 48.2311H82.783L88.679 42.3331C89.37 41.6421 89.37 40.5241 88.679 39.8331C87.988 39.1421 86.868 39.1421 86.176 39.8331L77.974 48.0381C77.915 48.0941 77.892 48.1681 77.843 48.2311H55.329L72.715 30.7401C72.811 30.7551 72.909 30.7691 73.01 30.7691H84.614C85.593 30.7691 86.385 29.9781 86.385 28.9991C86.385 28.0231 85.593 27.2311 84.614 27.2311H76.202L84.315 19.0681C85.003 18.3741 84.999 17.2561 84.307 16.5671C83.614 15.8781 82.495 15.8811 81.805 16.5741L73.772 24.6551V16.3901C73.772 15.4131 72.979 14.6201 72.003 14.6201C71.027 14.6201 70.234 15.4121 70.234 16.3901V27.9931C70.234 28.0631 70.245 28.1291 70.255 28.1961L52.855 45.7011V22.8901C52.924 22.8401 53.006 22.8131 53.068 22.7481L61.275 14.5421C61.963 13.8511 61.963 12.7331 61.275 12.0421C60.583 11.3511 59.463 11.3511 58.771 12.0421L52.855 17.9611V7.93406C52.855 6.95806 52.06 6.16406 51.084 6.16406C50.108 6.16406 49.316 6.95806 49.316 7.93406V17.9181L43.441 12.0421C42.75 11.3511 41.63 11.3511 40.94 12.0421C40.25 12.7331 40.249 13.8511 40.94 14.5421L49.144 22.7481C49.194 22.7991 49.259 22.8201 49.316 22.8631V45.4731L32.608 28.2511C32.609 28.2221 32.617 28.1951 32.617 28.1641V16.5621C32.617 15.5851 31.825 14.7921 30.848 14.7921C29.87 14.7921 29.077 15.5841 29.077 16.5621V24.6141L20.421 15.6931C19.74 14.9921 18.62 14.9731 17.919 15.6551C17.218 16.3341 17.202 17.4551 17.881 18.1561L26.852 27.4011H18.237C17.259 27.4011 16.467 28.1951 16.467 29.1711C16.467 30.1481 17.259 30.9401 18.237 30.9401H29.841C29.978 30.9401 30.109 30.9191 30.238 30.8921L47.061 48.2311H23.026C22.978 48.1681 22.954 48.0941 22.896 48.0381L14.693 39.8331C14.003 39.1421 12.881 39.1421 12.191 39.8331C11.501 40.5241 11.5 41.6421 12.191 42.3331L18.088 48.2311H7.24001C6.26301 48.2311 5.47101 49.0231 5.47101 50.0011C5.47101 50.9791 6.26301 51.7701 7.24001 51.7701H18.088L12.191 57.6681C11.5 58.3591 11.5 59.4791 12.191 60.1701C12.536 60.5141 12.989 60.6881 13.442 60.6881C13.895 60.6881 14.347 60.5141 14.693 60.1701L22.896 51.9631C22.954 51.9061 22.978 51.8321 23.026 51.7701H46.825L29.532 69.1681C29.412 69.1451 29.288 69.1291 29.161 69.1291H17.559C16.582 69.1291 15.79 69.9241 15.79 70.8991C15.79 71.8781 16.582 72.6681 17.559 72.6681H26.055L17.722 81.0531C17.033 81.7461 17.036 82.8671 17.729 83.5581C18.074 83.9001 18.525 84.0721 18.977 84.0721C19.431 84.0721 19.886 83.8981 20.232 83.5511L28.4 75.3341L28.401 83.5141C28.401 84.4891 29.193 85.2821 30.17 85.2821C31.148 85.2821 31.94 84.4891 31.94 83.5141L31.939 71.9101C31.939 71.8671 31.93 71.8241 31.926 71.7831L49.318 54.2871V77.6211C49.255 77.6681 49.182 77.6931 49.124 77.7501L40.921 85.9571C40.229 86.6481 40.229 87.7661 40.921 88.4571C41.267 88.8031 41.719 88.9771 42.171 88.9771C42.624 88.9771 43.076 88.8031 43.422 88.4571L49.318 82.5611V92.0731C49.318 93.0511 50.11 93.8421 51.086 93.8421C52.065 93.8421 52.857 93.0511 52.857 92.0731V82.5611L58.753 88.4571C59.1 88.8031 59.552 88.9771 60.004 88.9771C60.457 88.9771 60.909 88.8031 61.254 88.4571C61.945 87.7661 61.945 86.6481 61.254 85.9571L53.05 77.7501C52.991 77.6931 52.92 77.6681 52.858 77.6211V54.2011L69.6 71.4571C69.573 71.5801 69.555 71.7091 69.555 71.8381V83.4421C69.555 84.4201 70.348 85.2111 71.325 85.2111C72.303 85.2111 73.095 84.4201 73.095 83.4421V75.0611L81.97 84.2071C82.318 84.5631 82.777 84.7441 83.24 84.7441C83.681 84.7441 84.129 84.5781 84.47 84.2441C85.169 83.5631 85.189 82.4441 84.508 81.7421L75.638 72.6001H83.933C84.912 72.6001 85.704 71.8071 85.704 70.8301C85.704 69.8531 84.912 69.0621 83.933 69.0621H72.331C72.29 69.0621 72.252 69.0701 72.214 69.0721L55.425 51.7701H77.842C77.891 51.8321 77.914 51.9081 77.973 51.9631L86.175 60.1701C86.522 60.5141 86.975 60.6881 87.426 60.6881C87.879 60.6881 88.331 60.5141 88.678 60.1701C89.369 59.4791 89.369 58.3591 88.678 57.6681L82.782 51.7701H92.761C93.738 51.7701 94.529 50.9791 94.529 50.0011C94.529 49.0241 93.736 48.2311 92.762 48.2311Z" fill="#050B12"/>
</svg>
