<svg width="20" height="21" viewBox="0 0 20 21" fill="none" xmlns="http://www.w3.org/2000/svg">
<path d="M19.3775 2.925C19.4943 3.04216 19.5599 3.20083 19.5599 3.36625C19.5599 3.53167 19.4943 3.69035 19.3775 3.8075L18.0738 5.1125L15.5738 2.6125L16.8775 1.3075C16.9947 1.19033 17.1537 1.12451 17.3194 1.12451C17.4851 1.12451 17.6441 1.19033 17.7613 1.3075L19.3775 2.92375V2.925ZM17.19 5.995L14.69 3.495L6.17376 12.0125C6.10496 12.0813 6.05317 12.1652 6.02251 12.2575L5.01626 15.275C4.99801 15.33 4.99542 15.389 5.00878 15.4454C5.02213 15.5018 5.05091 15.5534 5.0919 15.5944C5.13288 15.6354 5.18445 15.6641 5.24085 15.6775C5.29725 15.6908 5.35625 15.6883 5.41126 15.67L8.42876 14.6638C8.52097 14.6335 8.60485 14.5821 8.67376 14.5138L17.19 5.99625V5.995Z" fill="#FFB800"/>
<path fill-rule="evenodd" clip-rule="evenodd" d="M1.25 17.375C1.25 17.8723 1.44754 18.3492 1.79917 18.7008C2.15081 19.0525 2.62772 19.25 3.125 19.25H16.875C17.3723 19.25 17.8492 19.0525 18.2008 18.7008C18.5525 18.3492 18.75 17.8723 18.75 17.375V9.875C18.75 9.70924 18.6842 9.55027 18.5669 9.43306C18.4497 9.31585 18.2908 9.25 18.125 9.25C17.9592 9.25 17.8003 9.31585 17.6831 9.43306C17.5658 9.55027 17.5 9.70924 17.5 9.875V17.375C17.5 17.5408 17.4342 17.6997 17.3169 17.8169C17.1997 17.9342 17.0408 18 16.875 18H3.125C2.95924 18 2.80027 17.9342 2.68306 17.8169C2.56585 17.6997 2.5 17.5408 2.5 17.375V3.625C2.5 3.45924 2.56585 3.30027 2.68306 3.18306C2.80027 3.06585 2.95924 3 3.125 3H11.25C11.4158 3 11.5747 2.93415 11.6919 2.81694C11.8092 2.69973 11.875 2.54076 11.875 2.375C11.875 2.20924 11.8092 2.05027 11.6919 1.93306C11.5747 1.81585 11.4158 1.75 11.25 1.75H3.125C2.62772 1.75 2.15081 1.94754 1.79917 2.29917C1.44754 2.65081 1.25 3.12772 1.25 3.625V17.375Z" fill="#FFB800"/>
</svg>
