<svg
  xmlns="http://www.w3.org/2000/svg"
  enable-background="new 0 0 15 15"
  viewBox="0 0 15 15"
  x="0"
  y="0"
  width="15"
  height="15"
  fill="rgba(0,0,0,0.54)"
>
  <g>
    <circle
      cx="7.5"
      cy="7.5"
      fill="none"
      r="6.5"
      stroke-miterlimit="10"
      stroke="rgba(0,0,0,0.54)"
    ></circle>
    <path
      d="m5.3 5.3c.1-.3.3-.6.5-.8s.4-.4.7-.5.6-.2 1-.2c.3 0 .6 0 .9.1s.5.2.7.4.4.4.5.7.2.6.2.9c0 .2 0 .4-.1.6s-.1.3-.2.5c-.1.1-.2.2-.3.3-.1.2-.2.3-.4.4-.1.1-.2.2-.3.3s-.2.2-.3.4c-.1.1-.1.2-.2.4s-.1.3-.1.5v.4h-.9v-.5c0-.3.1-.6.2-.8s.2-.4.3-.5c.2-.2.3-.3.5-.5.1-.1.3-.3.4-.4.1-.2.2-.3.3-.5s.1-.4.1-.7c0-.4-.2-.7-.4-.9s-.5-.3-.9-.3c-.3 0-.5 0-.7.1-.1.1-.3.2-.4.4-.1.1-.2.3-.3.5 0 .2-.1.5-.1.7h-.9c0-.3.1-.7.2-1zm2.8 5.1v1.2h-1.2v-1.2z"
      stroke="none"
    ></path>
  </g>
</svg>
