<svg width="16" height="16" viewBox="0 0 16 16" fill="none" xmlns="http://www.w3.org/2000/svg">
<path d="M14.4733 13.5267L12 11.0733C12.9601 9.87627 13.425 8.35686 13.2992 6.82753C13.1734 5.2982 12.4664 3.87519 11.3237 2.85109C10.1809 1.827 8.6892 1.27967 7.15528 1.32164C5.62136 1.36362 4.16181 1.99171 3.07676 3.07676C1.99171 4.16181 1.36362 5.62136 1.32164 7.15528C1.27967 8.6892 1.827 10.1809 2.85109 11.3237C3.87519 12.4664 5.2982 13.1734 6.82753 13.2992C8.35686 13.425 9.87627 12.9601 11.0733 12L13.5267 14.4533C13.5886 14.5158 13.6624 14.5654 13.7436 14.5993C13.8249 14.6331 13.912 14.6505 14 14.6505C14.088 14.6505 14.1751 14.6331 14.2564 14.5993C14.3376 14.5654 14.4114 14.5158 14.4733 14.4533C14.5935 14.329 14.6607 14.1629 14.6607 13.99C14.6607 13.8171 14.5935 13.651 14.4733 13.5267ZM7.33333 12C6.41035 12 5.5081 11.7263 4.74067 11.2135C3.97324 10.7007 3.3751 9.97191 3.02189 9.11919C2.66868 8.26646 2.57627 7.32815 2.75633 6.42291C2.9364 5.51766 3.38085 4.68614 4.0335 4.0335C4.68614 3.38085 5.51766 2.9364 6.42291 2.75633C7.32815 2.57627 8.26646 2.66868 9.11919 3.02189C9.97191 3.3751 10.7007 3.97324 11.2135 4.74067C11.7263 5.5081 12 6.41035 12 7.33333C12 8.57101 11.5083 9.75799 10.6332 10.6332C9.75799 11.5083 8.57101 12 7.33333 12Z" fill="#76869B"/>
</svg>
