<svg width="20" height="21" viewBox="0 0 20 21" fill="none" xmlns="http://www.w3.org/2000/svg">
<defs>
<clipPath id="clip0_101_57">
<rect width="20" height="20" fill="white" transform="translate(0 0.5)"/>
</clipPath>
</defs>
<g clip-path="url(#clip0_101_57)">
<path d="M6.875 7.375C7.04076 7.375 7.19973 7.44085 7.31694 7.55806C7.43415 7.67527 7.5 7.83424 7.5 8V15.5C7.5 15.6658 7.43415 15.8247 7.31694 15.9419C7.19973 16.0592 7.04076 16.125 6.875 16.125C6.70924 16.125 6.55027 16.0592 6.43306 15.9419C6.31585 15.8247 6.25 15.6658 6.25 15.5V8C6.25 7.83424 6.31585 7.67527 6.43306 7.55806C6.55027 7.44085 6.70924 7.375 6.875 7.375ZM10 7.375C10.1658 7.375 10.3247 7.44085 10.4419 7.55806C10.5592 7.67527 10.625 7.83424 10.625 8V15.5C10.625 15.6658 10.5592 15.8247 10.4419 15.9419C10.3247 16.0592 10.1658 16.125 10 16.125C9.83424 16.125 9.67527 16.0592 9.55806 15.9419C9.44085 15.8247 9.375 15.6658 9.375 15.5V8C9.375 7.83424 9.44085 7.67527 9.55806 7.55806C9.67527 7.44085 9.83424 7.375 10 7.375ZM13.75 8C13.75 7.83424 13.6842 7.67527 13.5669 7.55806C13.4497 7.44085 13.2908 7.375 13.125 7.375C12.9592 7.375 12.8003 7.44085 12.6831 7.55806C12.5658 7.67527 12.5 7.83424 12.5 8V15.5C12.5 15.6658 12.5658 15.8247 12.6831 15.9419C12.8003 16.0592 12.9592 16.125 13.125 16.125C13.2908 16.125 13.4497 16.0592 13.5669 15.9419C13.6842 15.8247 13.75 15.6658 13.75 15.5V8Z" fill="#FF6262"/>
<path fill-rule="evenodd" clip-rule="evenodd" d="M18.125 4.25C18.125 4.58152 17.9933 4.89946 17.7589 5.13388C17.5245 5.3683 17.2065 5.5 16.875 5.5H16.25V16.75C16.25 17.413 15.9866 18.0489 15.5178 18.5178C15.0489 18.9866 14.413 19.25 13.75 19.25H6.25C5.58696 19.25 4.95107 18.9866 4.48223 18.5178C4.01339 18.0489 3.75 17.413 3.75 16.75V5.5H3.125C2.79348 5.5 2.47554 5.3683 2.24112 5.13388C2.0067 4.89946 1.875 4.58152 1.875 4.25V3C1.875 2.66848 2.0067 2.35054 2.24112 2.11612C2.47554 1.8817 2.79348 1.75 3.125 1.75H7.5C7.5 1.41848 7.6317 1.10054 7.86612 0.866117C8.10054 0.631696 8.41848 0.5 8.75 0.5L11.25 0.5C11.5815 0.5 11.8995 0.631696 12.1339 0.866117C12.3683 1.10054 12.5 1.41848 12.5 1.75H16.875C17.2065 1.75 17.5245 1.8817 17.7589 2.11612C17.9933 2.35054 18.125 2.66848 18.125 3V4.25ZM5.1475 5.5L5 5.57375V16.75C5 17.0815 5.1317 17.3995 5.36612 17.6339C5.60054 17.8683 5.91848 18 6.25 18H13.75C14.0815 18 14.3995 17.8683 14.6339 17.6339C14.8683 17.3995 15 17.0815 15 16.75V5.57375L14.8525 5.5H5.1475ZM3.125 4.25V3H16.875V4.25H3.125Z" fill="#FF6262"/>
</g>
Sorry, your browser does not support inline SVG.
</svg>
