<svg width="100" height="100" viewBox="0 0 100 100" fill="none" xmlns="http://www.w3.org/2000/svg">
<path d="M50.538 78.4881C34.916 78.4881 22.204 65.7771 22.204 50.1551C22.204 34.5311 34.916 21.8201 50.538 21.8201C66.163 21.8201 78.873 34.5301 78.873 50.1551C78.873 65.7771 66.161 78.4881 50.538 78.4881ZM50.538 24.7371C36.522 24.7371 25.121 36.1401 25.121 50.1561C25.121 64.1721 36.521 75.5731 50.538 75.5731C64.555 75.5731 75.958 64.1721 75.958 50.1561C75.958 36.1401 64.555 24.7371 50.538 24.7371Z" fill="#050B12"/>
<path d="M50.538 17.7151C49.734 17.7151 49.08 17.0621 49.08 16.2571V6.52709C49.08 5.72209 49.734 5.06909 50.538 5.06909C51.343 5.06909 51.995 5.72209 51.995 6.52709V16.2581C51.995 17.0631 51.343 17.7151 50.538 17.7151Z" fill="#050B12"/>
<path d="M50.538 94.9321C49.734 94.9321 49.08 94.2781 49.08 93.4751V83.7441C49.08 82.9381 49.734 82.2871 50.538 82.2871C51.343 82.2871 51.995 82.9381 51.995 83.7441V93.4751C51.995 94.2771 51.343 94.9321 50.538 94.9321Z" fill="#050B12"/>
<path d="M93.029 50.9709H83.297C82.491 50.9709 81.839 50.3189 81.839 49.5139C81.839 48.7089 82.491 48.0559 83.297 48.0559H93.029C93.835 48.0559 94.486 48.7079 94.486 49.5139C94.486 50.3199 93.835 50.9709 93.029 50.9709Z" fill="#050B12"/>
<path d="M16.703 50.9709H6.971C6.164 50.9709 5.513 50.3189 5.513 49.5139C5.513 48.7089 6.165 48.0559 6.971 48.0559H16.703C17.507 48.0559 18.162 48.7079 18.162 49.5139C18.162 50.3199 17.508 50.9709 16.703 50.9709Z" fill="#050B12"/>
<path d="M23.41 24.5961C23.037 24.5961 22.664 24.4531 22.379 24.1691L15.497 17.2881C14.927 16.7191 14.927 15.7971 15.497 15.2261C16.067 14.6561 16.988 14.6561 17.558 15.2261L24.441 22.1081C25.01 22.6761 25.01 23.5991 24.441 24.1701C24.157 24.4541 23.784 24.5961 23.41 24.5961Z" fill="#050B12"/>
<path d="M76.998 24.5961C76.625 24.5961 76.251 24.4531 75.968 24.1691C75.399 23.5991 75.399 22.6761 75.968 22.1071L82.848 15.2261C83.416 14.6561 84.34 14.6561 84.91 15.2261C85.481 15.7961 85.481 16.7181 84.91 17.2881L78.03 24.1691C77.744 24.4541 77.371 24.5961 76.998 24.5961Z" fill="#050B12"/>
<path d="M17.657 84.1769C17.285 84.1769 16.911 84.0319 16.627 83.7479C16.058 83.1799 16.058 82.2569 16.627 81.6859L23.508 74.8049C24.078 74.2369 25 74.2369 25.57 74.8049C26.14 75.3749 26.14 76.2979 25.57 76.8669L18.689 83.7469C18.403 84.0319 18.03 84.1769 17.657 84.1769Z" fill="#050B12"/>
<path d="M83.878 85.201C83.505 85.201 83.131 85.058 82.848 84.773L75.964 77.89C75.397 77.324 75.397 76.398 75.964 75.828C76.535 75.257 77.455 75.258 78.026 75.828L84.909 82.71C85.479 83.279 85.479 84.202 84.909 84.772C84.624 85.059 84.251 85.201 83.878 85.201Z" fill="#050B12"/>
</svg>
