<svg width="100" height="100" viewBox="0 0 100 100" fill="none" xmlns="http://www.w3.org/2000/svg">
<path d="M53.126 94.062C28.54 94.062 8.53503 74.056 8.53503 49.466C8.53503 24.282 25.871 6.00195 49.757 6.00195C55.27 6.00195 57.617 6.65095 58.42 8.39795C59.377 10.477 57.529 12.632 54.734 15.893C48.813 22.806 38.901 34.374 46.901 52.824C50.877 61.994 58.523 66.449 70.276 66.449C74.729 66.449 78.906 65.83 82.258 65.334C84.438 65.011 86.157 64.755 87.399 64.755C87.942 64.755 89.382 64.755 90.11 65.817C90.344 66.164 90.68 66.901 90.27 67.947C83.662 84.789 70.466 94.062 53.126 94.062ZM49.758 9.07995C27.297 9.07995 11.611 25.688 11.611 49.468C11.611 72.362 30.235 90.987 53.127 90.987C72.996 90.987 82.493 78.641 87.002 67.846C85.968 67.899 84.443 68.122 82.712 68.378C79.44 68.863 74.959 69.525 70.277 69.525C57.351 69.525 48.538 64.318 44.083 54.049C35.314 33.834 46.431 20.862 52.402 13.893C53.714 12.361 55.328 10.479 55.564 9.68895C55.195 9.49395 53.928 9.07995 49.758 9.07995Z" fill="#050B12"/>
</svg>
