<svg width="100" height="100" viewBox="0 0 100 100" fill="none" xmlns="http://www.w3.org/2000/svg">
<path d="M66.938 66.6459C66.432 66.6459 65.948 66.3589 65.718 65.8729C65.403 65.1999 65.692 64.3979 66.364 64.0839C71.923 61.4729 76.158 56.8409 78.962 50.3019C78.204 50.3729 77.175 50.5259 76.281 50.6569C69.099 51.7189 54.156 53.9329 48.199 40.1949C41.824 25.4989 49.894 16.0799 54.228 11.0209C55.054 10.0589 56.05 8.89391 56.373 8.27691C55.96 8.13991 54.943 7.94391 52.506 7.94391C36.467 7.94391 25.265 19.8109 25.265 36.7999C25.265 47.2519 30.863 57.0499 39.874 62.3659C40.514 62.7449 40.727 63.5699 40.35 64.2089C39.973 64.8499 39.146 65.0629 38.508 64.6859C28.679 58.8849 22.574 48.2019 22.574 36.8009C22.574 18.5219 35.162 5.25391 52.507 5.25391C56.053 5.25391 58.247 5.55891 58.965 7.11891C59.717 8.75491 58.348 10.3539 56.274 12.7729C52.045 17.7099 44.964 25.9719 50.67 39.1259C55.81 50.9709 68.87 49.0349 75.89 47.9959C79.289 47.4939 80.839 47.2639 81.702 48.3469C81.89 48.5849 82.294 49.2439 81.917 50.2029C78.906 57.8669 73.926 63.5089 67.514 66.5189C67.324 66.6049 67.129 66.6459 66.938 66.6459Z" fill="#050B12"/>
<path d="M29.578 79.8551C29.388 79.8551 29.194 79.8141 29.011 79.7301C28.337 79.4151 28.046 78.613 28.36 77.939L33.289 67.3821C33.603 66.7091 34.403 66.4201 35.077 66.7301C35.751 67.0451 36.042 67.8471 35.727 68.5211L30.798 79.078C30.57 79.566 30.085 79.8551 29.578 79.8551Z" fill="#050B12"/>
<path d="M36.763 88.654C36.562 88.654 36.358 88.609 36.165 88.511C35.5 88.181 35.228 87.373 35.559 86.708L48.326 61.011C48.657 60.347 49.461 60.075 50.13 60.407C50.795 60.738 51.067 61.545 50.734 62.21L37.969 87.908C37.734 88.382 37.259 88.654 36.763 88.654Z" fill="#050B12"/>
<path d="M45.893 94.8121C45.689 94.8121 45.482 94.7671 45.287 94.6661C44.623 94.3291 44.358 93.5201 44.693 92.8561L61.223 60.1961C61.559 59.5341 62.369 59.2661 63.033 59.6021C63.697 59.9381 63.962 60.7481 63.627 61.4111L47.095 94.0741C46.857 94.5441 46.384 94.8121 45.893 94.8121Z" fill="#050B12"/>
<path d="M62.424 88.0679C62.243 88.0679 62.061 88.0319 61.883 87.9529C61.203 87.6559 60.895 86.8609 61.194 86.1819L68.67 69.1729C68.967 68.4919 69.76 68.1839 70.442 68.4829C71.123 68.7829 71.43 69.5769 71.13 70.2559L63.656 87.2659C63.436 87.7699 62.941 88.0679 62.424 88.0679Z" fill="#050B12"/>
</svg>
