<svg width="100" height="100" viewBox="0 0 100 100" fill="none" xmlns="http://www.w3.org/2000/svg">
<path d="M87.809 47.081C84.214 45.285 81.272 45.146 79.592 45.248C79.675 42.307 78.977 36.249 72.677 31.733C69.38 29.37 66.811 28.491 63.192 28.491C62.024 28.491 60.787 28.578 59.623 28.674C55.22 29.033 50.294 32.683 47.569 35.937C46.714 34.646 45.625 33.492 44.266 32.518C40.674 29.943 38.34 29.818 34.218 30.154C30.002 30.497 25.157 34.741 23.71 37.475C22.295 37.244 19.563 37.064 17.292 38.53C14.301 40.458 13.71 43.849 13.614 45.599C10.619 46.48 6.19798 49.076 5.82798 54.299C5.53198 58.483 6.87698 60.867 8.05798 62.133C9.22598 63.386 10.802 64.132 12.273 64.132C12.274 64.132 12.276 64.132 12.279 64.132H22.446C22.864 67.231 24.077 69.207 25.185 70.397C26.657 71.975 28.635 72.919 30.482 72.919L83.107 72.917C83.107 72.917 83.214 72.924 83.414 72.924C85.014 72.924 93.083 72.471 94.882 63.486C95.271 61.527 96.768 51.557 87.809 47.081ZM12.275 61.572C12.275 61.572 12.274 61.572 12.273 61.572C11.701 61.572 10.743 61.26 9.92598 60.384C9.09198 59.49 8.14698 57.74 8.37598 54.476C8.75698 49.122 14.86 47.909 15.116 47.858L16.251 47.65L16.16 46.5C16.157 46.46 15.877 42.48 18.675 40.675C20.838 39.279 23.914 40.122 23.942 40.129L24.757 40.364L25.29 39.702C25.36 39.617 25.716 39.168 25.938 38.722C26.924 36.767 31.088 32.97 34.421 32.699C38.142 32.397 39.827 32.482 42.771 34.592C44.186 35.606 45.244 36.842 45.969 38.254C45.963 38.264 45.955 38.277 45.95 38.287C45.926 38.332 45.9 38.382 45.868 38.432C45.209 38.309 44.239 38.177 43.127 38.177C40.883 38.177 38.941 38.697 37.354 39.72C33.361 42.295 32.726 46.933 32.655 49.063C28.8 50.113 22.826 53.444 22.339 60.317C22.308 60.757 22.312 61.159 22.307 61.569H12.275V61.572ZM92.372 62.98C91 69.832 85.167 70.364 83.412 70.364L30.475 70.359C29.592 70.359 28.23 69.91 27.056 68.648C25.893 67.402 24.576 64.978 24.892 60.5C25.419 53.064 33.823 51.404 34.18 51.338L35.306 51.123L35.221 49.983C35.217 49.927 34.852 44.38 38.742 41.87C39.91 41.119 41.385 40.736 43.129 40.736C44.78 40.736 46.06 41.093 46.07 41.096L46.886 41.33L47.42 40.668C47.474 40.603 47.948 40.006 48.234 39.439C49.549 36.835 55.088 31.609 59.828 31.22C60.937 31.13 62.113 31.047 63.189 31.047C65.812 31.047 67.961 31.499 71.183 33.809C78.259 38.883 76.972 46.186 76.914 46.49L76.524 48.511L78.512 47.969C78.528 47.964 81.866 46.972 86.659 49.368C93.959 53.014 92.699 61.348 92.372 62.98Z" fill="#050B12"/>
</svg>
