<svg width="100" height="100" viewBox="0 0 100 100" fill="none" xmlns="http://www.w3.org/2000/svg">
<path d="M62.471 28.688C51.293 28.688 42.114 37.528 41.537 48.58C41.304 48.822 41.085 49.062 40.877 49.301C40.158 48.276 39.27 47.352 38.175 46.567C35.063 44.335 33.044 44.229 29.485 44.516C25.898 44.808 21.788 48.351 20.449 50.721C19.179 50.534 16.9 50.442 14.991 51.673C12.454 53.311 11.886 56.136 11.774 57.704C9.173 58.512 5.462 60.773 5.144 65.251C4.887 68.887 6.066 70.971 7.1 72.077C8.134 73.185 9.532 73.848 10.843 73.848C10.844 73.848 10.846 73.848 10.848 73.848H19.312C19.7 76.424 20.725 78.094 21.665 79.104C22.957 80.492 24.699 81.321 26.33 81.321L71.07 81.317C71.07 81.317 71.167 81.325 71.342 81.325C72.732 81.325 79.744 80.929 81.308 73.123C81.566 71.828 82.371 66.46 79.241 62.278C81.997 58.624 83.461 54.278 83.461 49.675C83.458 38.102 74.044 28.688 62.471 28.688ZM62.471 31.298C72.606 31.298 80.848 39.542 80.848 49.674C80.848 53.565 79.649 57.242 77.395 60.372C76.75 59.85 76.026 59.359 75.176 58.935C72.238 57.465 69.781 57.277 68.313 57.34C68.338 54.715 67.61 49.678 62.338 45.898C59.493 43.858 57.274 43.102 54.145 43.102C53.145 43.102 52.084 43.176 51.09 43.256C48.877 43.437 46.515 44.583 44.459 46.06C46.149 37.66 53.596 31.298 62.471 31.298ZM19.188 70.373C19.166 70.677 19.172 70.949 19.166 71.236H10.844C10.844 71.236 10.844 71.236 10.843 71.236C10.401 71.236 9.654 70.99 9.008 70.297C8.327 69.568 7.557 68.134 7.747 65.438C8.058 61.055 13.091 60.048 13.301 60.007L14.45 59.79L14.367 58.625C14.365 58.594 14.16 55.316 16.407 53.867C18.163 52.732 20.687 53.423 20.706 53.429L21.541 53.669L22.085 52.991C22.146 52.915 22.46 52.516 22.66 52.12C23.481 50.496 26.935 47.341 29.698 47.117C32.871 46.86 34.199 46.926 36.654 48.686C37.76 49.478 38.606 50.434 39.204 51.517C38.649 51.425 37.916 51.34 37.085 51.34C35.135 51.34 33.442 51.792 32.058 52.687C28.677 54.869 28.058 58.734 27.969 60.65C24.626 61.607 19.604 64.498 19.188 70.373ZM78.746 72.609C77.611 78.271 72.792 78.712 71.341 78.712L26.322 78.708C25.616 78.708 24.524 78.346 23.572 77.324C22.614 76.295 21.526 74.286 21.79 70.556C22.226 64.406 29.214 63.019 29.508 62.963L30.667 62.75L30.574 61.576C30.57 61.53 30.246 56.96 33.47 54.88C34.428 54.263 35.642 53.95 37.083 53.95C38.455 53.95 39.518 54.245 39.524 54.247L40.357 54.487L40.901 53.811C40.948 53.752 41.365 53.231 41.619 52.727C42.744 50.499 47.493 46.168 51.301 45.857C52.24 45.781 53.235 45.711 54.145 45.711C56.382 45.711 58.11 46.078 60.815 48.018C66.713 52.247 65.649 58.332 65.602 58.584L65.208 60.639L67.232 60.092C67.243 60.09 70.027 59.28 74.005 61.268C80.07 64.299 79.02 71.248 78.746 72.609Z" fill="#050B12"/>
<path d="M62.471 26.156C63.194 26.156 63.776 25.571 63.776 24.851V17.723C63.776 17.003 63.194 16.418 62.471 16.418C61.749 16.418 61.165 17.003 61.165 17.723V24.851C61.165 25.571 61.749 26.156 62.471 26.156Z" fill="#050B12"/>
<path d="M93.587 47.8989H86.459C85.736 47.8989 85.154 48.4819 85.154 49.2039C85.154 49.9259 85.736 50.5089 86.459 50.5089H93.587C94.309 50.5089 94.893 49.9259 94.893 49.2039C94.893 48.4819 94.309 47.8989 93.587 47.8989Z" fill="#050B12"/>
<path d="M41.681 30.8119C41.936 31.0669 42.27 31.1939 42.604 31.1939C42.938 31.1939 43.272 31.0669 43.527 30.8119C44.037 30.3039 44.037 29.4759 43.527 28.9659L38.489 23.9269C37.979 23.4169 37.153 23.4169 36.643 23.9269C36.133 24.4359 36.133 25.2629 36.643 25.7729L41.681 30.8119Z" fill="#050B12"/>
<path d="M81.846 31.1949C82.18 31.1949 82.514 31.0679 82.768 30.8129L87.809 25.7739C88.319 25.2639 88.319 24.4379 87.809 23.9279C87.298 23.4179 86.473 23.4179 85.962 23.9279L80.922 28.9669C80.412 29.4759 80.412 30.3029 80.922 30.8129C81.177 31.0669 81.512 31.1949 81.846 31.1949Z" fill="#050B12"/>
</svg>
