<svg width="100" height="100" viewBox="0 0 100 100" fill="none" xmlns="http://www.w3.org/2000/svg">
<path d="M90.092 39.499C88.158 38.533 86.458 38.298 85.27 38.296C85.216 36.229 84.507 32.692 80.762 30.007C77.735 27.836 75.776 27.731 72.315 28.012C68.831 28.295 64.846 31.723 63.539 34.021C62.925 33.931 62.078 33.869 61.155 33.97C62.729 31.001 64.772 28.612 66.397 26.718C68.45 24.321 69.807 22.737 69.065 21.127C68.36 19.591 66.186 19.291 62.67 19.291C46.515 19.291 34.563 30.739 33.12 47.289C29.906 49.093 27.065 51.98 26.022 54.043C25.448 53.943 24.657 53.846 23.759 53.846C21.78 53.846 20.064 54.307 18.661 55.211C15.224 57.43 14.6 61.361 14.511 63.302C11.12 64.27 6.01399 67.201 5.59199 73.168C5.25699 77.902 6.77199 80.6 8.10099 82.025C9.41199 83.431 11.177 84.271 12.829 84.271L58.29 84.27C58.29 84.27 58.387 84.276 58.564 84.276C59.368 84.276 62.008 84.143 64.431 82.579L64.427 82.761L65.082 82.767C77.592 82.767 87.104 76.08 91.874 63.939C92.245 63.001 91.853 62.355 91.667 62.122C90.819 61.059 89.282 61.287 85.917 61.784C79.744 62.697 68.878 64.302 62.901 56.523H86.911C87.015 56.529 87.126 56.533 87.241 56.533C89.584 56.533 93.756 55.254 94.756 50.252C95.499 46.548 94.663 41.782 90.092 39.499ZM58.564 81.657L12.823 81.654C12.102 81.654 10.988 81.283 10.017 80.243C9.04199 79.195 7.93399 77.148 8.20299 73.353C8.64599 67.089 15.759 65.679 16.057 65.623L17.221 65.411L17.126 64.232C17.124 64.185 16.794 59.532 20.08 57.413C21.054 56.784 22.291 56.465 23.759 56.465C25.155 56.465 26.238 56.768 26.245 56.768L27.081 57.01L27.627 56.331C27.672 56.271 28.095 55.744 28.354 55.232C29.496 52.965 34.325 48.559 38.204 48.243C39.158 48.165 40.169 48.094 41.093 48.094C43.37 48.094 45.126 48.469 47.882 50.443C53.883 54.746 52.799 60.942 52.753 61.197L52.357 63.259L54.386 62.71C54.402 62.706 57.236 61.88 61.285 63.902C67.454 66.986 66.383 74.056 66.104 75.443C64.953 81.21 60.044 81.657 58.564 81.657ZM86.302 64.371C87.21 64.236 88.256 64.081 89.016 64.014C85.916 71.251 79.62 79.326 66.992 80.075C67.731 78.997 68.335 77.66 68.675 75.96C69.021 74.246 70.332 65.497 62.457 61.564C59.463 60.068 56.963 59.892 55.476 59.949C55.503 57.292 54.775 52.166 49.411 48.319C46.523 46.249 44.271 45.479 41.098 45.479C40.08 45.479 39.007 45.555 37.996 45.637C37.294 45.694 36.579 45.855 35.861 46.083C37.728 31.718 48.418 21.913 62.673 21.913C65.156 21.913 66.165 22.118 66.559 22.255C66.255 22.865 65.246 24.045 64.411 25.019C60.104 30.044 52.092 39.397 58.423 53.991C64.331 67.624 79.172 65.426 86.302 64.371ZM92.189 49.735C91.34 53.973 87.494 53.918 86.984 53.902H61.271C61.116 53.591 60.96 53.275 60.818 52.945C58.052 46.565 58.31 41.342 59.786 37.095C61.462 36.11 63.779 36.73 63.799 36.736L64.637 36.978L65.182 36.297C65.242 36.224 65.545 35.838 65.744 35.444C66.534 33.88 69.859 30.838 72.527 30.621C75.588 30.371 76.868 30.437 79.238 32.134C83.349 35.084 82.624 39.323 82.592 39.494L82.203 41.539L84.224 41.009C84.306 40.988 86.245 40.502 88.922 41.841C93.119 43.938 92.383 48.784 92.189 49.735Z" fill="#050B12"/>
</svg>
