<svg width="100" height="100" viewBox="0 0 100 100" fill="none" xmlns="http://www.w3.org/2000/svg">
<path d="M80.387 77.023C80.151 77.023 80.02 77.015 80.02 77.015H14.716C12.49 77.015 10.102 75.872 8.32099 73.962C6.48499 71.989 4.39299 68.253 4.86099 61.644C5.53199 52.16 14.464 48.788 17.651 47.883C17.702 45.392 18.379 39.503 23.379 36.276C25.307 35.032 27.671 34.403 30.408 34.403C31.869 34.403 33.126 34.589 33.93 34.747C34.005 34.629 34.076 34.511 34.129 34.404C36.315 30.074 44.113 23.16 50.891 22.61C52.331 22.493 53.865 22.384 55.307 22.384C59.735 22.384 62.883 23.462 66.924 26.359C74.85 32.045 75.545 39.709 75.393 43.192C75.76 43.163 76.175 43.145 76.634 43.145C78.704 43.145 81.963 43.54 85.731 45.422C96.688 50.896 94.854 63.113 94.374 65.506C92.18 76.467 82.338 77.023 80.387 77.023ZM30.407 37.091C28.195 37.091 26.322 37.576 24.834 38.537C19.852 41.751 20.345 48.752 20.352 48.822L20.448 50.027L19.257 50.249C18.807 50.333 8.20599 52.422 7.53999 61.838C7.14099 67.483 8.81299 70.552 10.286 72.134C11.796 73.752 13.56 74.331 14.71 74.331L80.387 74.337C81.968 74.337 89.957 73.886 91.739 64.983C92.151 62.925 93.739 52.43 84.53 47.829C81.231 46.182 78.417 45.835 76.634 45.835C75.147 45.835 74.257 46.074 74.246 46.076L72.154 46.651L72.564 44.526C72.636 44.141 74.271 34.94 65.357 28.546C61.308 25.643 58.605 25.075 55.304 25.075C53.958 25.075 52.492 25.18 51.107 25.293C45.532 25.746 38.419 31.871 36.525 35.62C36.18 36.302 35.608 37.021 35.544 37.101L34.986 37.795L34.128 37.551C34.114 37.542 32.495 37.091 30.407 37.091Z" fill="#050B12"/>
</svg>
