<svg width="100" height="100" viewBox="0 0 100 100" fill="none" xmlns="http://www.w3.org/2000/svg">
<path d="M79.947 62.955C79.782 62.955 79.689 62.95 79.676 62.949L75.732 62.952C74.921 62.952 74.265 62.296 74.265 61.486C74.265 60.674 74.921 60.019 75.732 60.019H79.759C80.213 60.034 89.286 60.376 91.197 50.84C91.6 48.813 93.167 38.472 84.106 33.946C78.282 31.034 74.039 32.202 73.997 32.212C73.506 32.353 72.977 32.229 72.601 31.883C72.224 31.538 72.056 31.023 72.154 30.521C72.226 30.143 73.831 21.082 65.05 14.784C60.068 11.21 57.236 11.064 50.986 11.576C45.492 12.023 38.481 18.063 36.615 21.761C36.264 22.451 35.689 23.176 35.624 23.256C35.253 23.717 34.643 23.909 34.076 23.746C34.028 23.731 28.736 22.274 24.956 24.712C20.073 27.863 20.558 34.737 20.563 34.806C20.623 35.553 20.105 36.225 19.369 36.364C18.925 36.448 8.49401 38.506 7.84001 47.752C7.44501 53.316 9.08901 56.333 10.537 57.884C12.006 59.457 13.716 60.02 14.827 60.02C14.828 60.02 14.829 60.02 14.832 60.02H19.341C20.15 60.02 20.807 60.675 20.807 61.487C20.807 62.297 20.15 62.953 19.341 62.953H14.835C14.831 62.953 14.827 62.953 14.824 62.953C12.59 62.953 10.185 61.807 8.39201 59.886C6.54801 57.909 4.44601 54.163 4.91401 47.547C5.58001 38.135 14.35 34.732 17.62 33.787C17.687 31.237 18.415 25.445 23.366 22.25C27.163 19.8 31.812 20.303 33.852 20.692C33.908 20.603 33.958 20.517 33.998 20.44C36.179 16.116 43.973 9.20598 50.747 8.65598C57.334 8.11898 61.059 8.31498 66.758 12.405C74.57 18.006 75.356 25.534 75.233 29.088C77.385 28.935 81.069 29.15 85.42 31.326C96.39 36.805 94.554 49.024 94.075 51.419C91.861 62.457 81.734 62.955 79.947 62.955Z" fill="#050B12"/>
<path d="M20.992 73.189C20.783 73.189 20.574 73.146 20.372 73.052C19.639 72.709 19.323 71.836 19.664 71.103L25.821 57.92C26.164 57.185 27.038 56.874 27.771 57.212C28.504 57.554 28.821 58.427 28.479 59.16L22.322 72.343C22.072 72.879 21.543 73.189 20.992 73.189Z" fill="#050B12"/>
<path d="M29.964 84.1761C29.755 84.1761 29.543 84.1311 29.339 84.0351C28.606 83.6891 28.294 82.8161 28.639 82.0841L40.039 57.9161C40.384 57.1861 41.256 56.8681 41.991 57.2171C42.724 57.5631 43.036 58.4361 42.691 59.1681L31.291 83.3351C31.041 83.8641 30.514 84.1761 29.964 84.1761Z" fill="#050B12"/>
<path d="M41.364 91.867C41.155 91.867 40.943 91.822 40.741 91.728C40.01 91.381 39.695 90.508 40.038 89.775L55.023 57.918C55.37 57.186 56.244 56.871 56.974 57.215C57.705 57.561 58.021 58.434 57.677 59.166L42.692 91.025C42.442 91.557 41.914 91.867 41.364 91.867Z" fill="#050B12"/>
<path d="M62.004 81.2469C61.807 81.2469 61.608 81.2069 61.414 81.1229C60.673 80.7979 60.336 79.9339 60.661 79.1909L69.993 57.9519C70.318 57.2119 71.183 56.8739 71.927 57.1999C72.667 57.5249 73.003 58.3899 72.678 59.1319L63.348 80.3709C63.105 80.9209 62.568 81.2469 62.004 81.2469Z" fill="#050B12"/>
</svg>
